<svg
  viewBox="0 0 24 24"
  class="blk"
  title="Close the Menu"
  data-use="assets/dycmgkz8j91.24.2208191902389.svg#close"
>
  <path
    d="M1.285 0.002A1.498 1.498 0.012 0 0 0.012 1.5a1.498 1.498 0 0 0 0.434 0.884L10.019 11.986L0.447 21.604a1.408 1.408 0 0 0 0 1.992a1.393 1.393 0 0 0 1.962 0L11.996 14.009l9.572 9.587a1.498 1.498 0 0 0 2.007 0a1.408 1.408 0 0 0 0-1.992L14.034 11.986l9.587-9.587A1.423 1.423 0.012 0 0 21.614 0.437L11.996 10.009L2.454 0.437A1.588 1.588 0.012 0 0 1.285 0.002Z"
  ></path>
</svg>